<?xml version="1.0" encoding="UTF-8"?>
<svg id="Capa_2" data-name="Capa 2" xmlns="http://www.w3.org/2000/svg" viewBox="0 0 850.3937 850.3937">
  <defs>
    <style>
      .cls-1 {
        fill: none;
      }

      .cls-2 {
        fill: #3e6891;
      }
    </style>
  </defs>
  <g id="Capa_2-2" data-name="Capa 2">
    <g id="OBJECTS">
      <rect class="cls-1" width="850.3937" height="850.3937"/>
      <g>
        <path class="cls-2" d="M299.891,668.7131c64.2537,5.368,69.8497-93.0688,5.7846-95.4605-61.7617-2.3057-67.6165,90.2949-5.7846,95.4605ZM281.2856,602.8658c26.9843-31.225,69.9445,11.9425,42.5613,38.9817-26.3361,26.0052-64.4623-13.6389-42.5613-38.9817Z"/>
        <path class="cls-2" d="M781.7296,644.2455c23.6912-29.8523-7.2828-72.1686-43.7723-60.3382-31.2269,10.1242-36.4485,53.6926-8.0145,70.4141,18.5946,10.9351,38.6762,6.4441,51.7867-10.0759h.0001ZM737.2697,606.8992c19.3138-18.0185,46.3103,13.8433,24.3624,29.87-20.2115,14.7588-41.0146-14.3346-24.3624-29.87Z"/>
        <path class="cls-2" d="M312.2095,703.2695c3.5496-1.8857,8.273-1.4981,12.1401-2.4845,22.7895-5.8133,43.1553-22.2405,53.6172-43.1731,1.7348-3.4711,1.5394-9.7517,6.3167-9.8116l295.6434.052c2.5658.4831,7.7163,12.0073,9.9534,15.2473,32.0439,46.4096,105.0212,39.9201,127.9211-11.5417,4.0084-9.0078,4.5272-16.5351,6.8864-25.8666v-9.0676c-1.5097-5.0653-1.7098-10.4024-3.0814-15.5615-16.1433-60.7227-97.4171-71.926-132.9165-20.0131-2.1291,3.1135-6.0134,12.8959-8.7629,13.4136l-295.6436.0522c-1.195.0397-2.1586-.0658-2.9777-1.0562-1.2901-1.56-4.3217-10.1629-6.0263-13.1242-12.7655-22.176-36.2493-38.206-62.0686-40.2854l.0076-3.0187h374.2705l-10.0928-52.3937,68.4481-1.3341-41.0891-188.4958-69.6776-.6367-11.278-52.2088-375.5114.7382-16.8837-70.2848c-35.3173,1.628-70.879.4835-106.3387.9133-2.6222-.5023-4.6233-5.4453-6.5793-7.5343-9.6939-10.3529-19.4106-15.3906-33.2605-18.6696h-14.1234c-22.7202,4.2443-39.0014,19.1937-45.3967,41.3079v22.1652c10.1213,41.1608,60.5262,56.1152,90.7156,25.3829,2.3349-2.3769,5.9145-8.7022,8.6712-9.2444l59.5546-.0713,2.9982,1.0358,72.1675,320.957c.1051,1.2186.0861,2.3966-.5715,3.4823-.5175.8544-12.8793,9.7708-15.1214,12.0993-43.9138,45.6065-21.0684,121.3174,39.8158,136.5392l11.1238,2.4916h17.1499,0ZM719.7709,464.4898h-68.5994l11.093,52.385-374.2626,1.0185,8.5358,39.3225c9.0831,3.0552,17.1609,1.4323,26.7487,4.5187,23.2524,7.4852,39.3944,29.2144,42.9747,52.932l330.6997.0035c8.1823-52.9869,81.7772-64.7716,102.6888-13.8447,26.5007,64.5383-70.1388,105.367-97.8931,41.3459-1.5438-3.5611-3.2599-13.8391-6.7013-14.4651l-328.7939.9498c-7.363,47.3464-61.1826,72.2789-100.6842,42.3308-39.0355-29.5948-28.6237-92.6351,17.2616-108.8926l-78.6725-354.4164-92.2107-.1071c-3.1432.5917-5.2868,8.5155-7.5638,11.5887-21.3103,28.7622-66.0689,7.5574-58.0142-26.7063,6.7958-28.9082,44.5778-34.6606,59.858-9.3869,1.4792,2.4466,2.8205,8.5295,4.8776,9.2338l103.3003.6069,16.7453,69.1191,375.6927.3902,11.9799,51.5087,69.6591,1.4598,31.2805,149.1049v.0003Z"/>
        <path class="cls-2" d="M321.7933,276.0855c-1.0124.3-1.8436,2.0991-1.3288,3.2478l21.9418,96.0596c20.3812.1791,40.909.9903,61.2711,1.0634,29.5537.1061,59.1059-.0558,88.5577.4282,11.6072.1907,23.2565-.2363,34.8538-.0527l-22.1955-100.7463h-183.1001ZM501.8668,356.6862h-143.2518l-13.1146-60.4506h143.2518l13.1146,60.4506h0Z"/>
        <path class="cls-2" d="M458.4877,502.7752l-25.7248-111.8336h-173.0118l25.7248,111.8336h173.0118ZM433.2673,483.6325h-131.6504l-16.6455-73.5482h131.6504l16.6455,73.5482Z"/>
        <path class="cls-2" d="M645.1187,502.7752l-24.2116-111.8336h-172.5074l25.7248,111.8336h170.9942ZM619.8983,483.6325h-129.6328l-16.6455-73.5482h131.146l15.1322,73.5482h.0001Z"/>
        <path class="cls-2" d="M617.8806,376.8364l-22.6983-100.751h-75.1567l22.6983,100.751h75.1567ZM545.2459,296.2357h33.7953l13.616,60.4454-34.3548-.4405c-4.6578-19.7473-10.2275-39.7403-13.0565-60.0049Z"/>
        <path class="cls-2" d="M702.621,450.3847l-26.7336-121.9087h-53.9716l26.2292,121.9087h54.476ZM647.1401,348.6317c3.1237.6242,12.715-1.6171,13.9316,1.6934l17.1663,78.6203c.1672,3.4238-12.1731,3.3568-13.7947.6283l-17.3032-80.9419h0Z"/>
        <path class="cls-2" d="M327.3417,375.8289l-21.1924-98.7293c-23.868-.3277-47.7176.1259-71.6224-.006l21.1889,98.7354h71.6259ZM290.0155,296.2357l12.7311,58.3691c.6111.7319-.8787,2.0815-1.1297,2.0815h-29.7601l-13.1146-60.4506h31.2733,0Z"/>
      </g>
    </g>
  </g>
</svg>